<svg width="38" height="22" viewBox="0 0 38 22" fill="none" xmlns="http://www.w3.org/2000/svg">
<path id="Vector" d="M36.1 0H1.9C0.850844 0 0 0.985188 0 2.2V19.8C0 21.0148 0.850844 22 1.9 22H36.1C37.1492 22 38 21.0148 38 19.8V2.2C38 0.985188 37.1492 0 36.1 0ZM18.05 17.6C18.05 17.9039 17.8374 18.15 17.575 18.15H4.275C4.01256 18.15 3.8 17.9039 3.8 17.6V17.05C3.8 16.7461 4.01256 16.5 4.275 16.5H17.575C17.8374 16.5 18.05 16.7461 18.05 17.05V17.6ZM4.275 13.2V12.1C4.275 11.7961 4.48756 11.55 4.75 11.55H5.7C5.96244 11.55 6.175 11.7961 6.175 12.1V13.2C6.175 13.5039 5.96244 13.75 5.7 13.75H4.75C4.48756 13.75 4.275 13.5039 4.275 13.2ZM8.075 13.2V12.1C8.075 11.7961 8.28756 11.55 8.55 11.55H9.5C9.76244 11.55 9.975 11.7961 9.975 12.1V13.2C9.975 13.5039 9.76244 13.75 9.5 13.75H8.55C8.28756 13.75 8.075 13.5039 8.075 13.2ZM11.875 13.2V12.1C11.875 11.7961 12.0876 11.55 12.35 11.55H13.3C13.5624 11.55 13.775 11.7961 13.775 12.1V13.2C13.775 13.5039 13.5624 13.75 13.3 13.75H12.35C12.0876 13.75 11.875 13.5039 11.875 13.2ZM15.675 13.2V12.1C15.675 11.7961 15.8876 11.55 16.15 11.55H17.1C17.3624 11.55 17.575 11.7961 17.575 12.1V13.2C17.575 13.5039 17.3624 13.75 17.1 13.75H16.15C15.8876 13.75 15.675 13.5039 15.675 13.2ZM18.05 8.8C18.05 9.40775 17.6249 9.9 17.1 9.9H4.75C4.22512 9.9 3.8 9.40775 3.8 8.8V5.5C3.8 4.89225 4.22512 4.4 4.75 4.4H17.1C17.6249 4.4 18.05 4.89225 18.05 5.5V8.8ZM34.2 17.6C34.2 17.9039 33.9874 18.15 33.725 18.15H20.425C20.1626 18.15 19.95 17.9039 19.95 17.6V17.05C19.95 16.7461 20.1626 16.5 20.425 16.5H33.725C33.9874 16.5 34.2 16.7461 34.2 17.05V17.6Z" fill="white"/>
</svg>
