<svg width="39" height="33" viewBox="0 0 39 33" fill="none" xmlns="http://www.w3.org/2000/svg">
<path id="Vector" d="M19.1366 8.41297L7.17222 19.4061V31.2708C7.17222 31.578 7.28161 31.8727 7.47633 32.0899C7.67104 32.3071 7.93514 32.4291 8.21051 32.4291L15.4825 32.4082C15.7569 32.4066 16.0197 32.2839 16.2133 32.0668C16.4069 31.8498 16.5156 31.556 16.5156 31.2498V24.321C16.5156 24.0138 16.625 23.7191 16.8197 23.5019C17.0144 23.2847 17.2785 23.1626 17.5539 23.1626H21.707C21.9824 23.1626 22.2465 23.2847 22.4412 23.5019C22.6359 23.7191 22.7453 24.0138 22.7453 24.321V31.2448C22.7449 31.3972 22.7714 31.5482 22.8234 31.6891C22.8754 31.8301 22.9518 31.9582 23.0483 32.0662C23.1447 32.1741 23.2593 32.2598 23.3855 32.3182C23.5117 32.3766 23.647 32.4067 23.7836 32.4067L31.053 32.4291C31.3283 32.4291 31.5924 32.3071 31.7872 32.0899C31.9819 31.8727 32.0913 31.578 32.0913 31.2708V19.3981L20.1295 8.41297C19.9888 8.28652 19.8137 8.21756 19.633 8.21756C19.4524 8.21756 19.2772 8.28652 19.1366 8.41297ZM38.0355 15.8848L32.6104 10.8961V0.868735C32.6104 0.638332 32.5284 0.417366 32.3823 0.254447C32.2363 0.0915273 32.0382 0 31.8317 0H28.1977C27.9911 0 27.7931 0.0915273 27.647 0.254447C27.501 0.417366 27.4189 0.638332 27.4189 0.868735V6.1253L21.609 0.792721C21.0515 0.280876 20.3519 0.00102319 19.6298 0.00102319C18.9077 0.00102319 18.2081 0.280876 17.6505 0.792721L1.22409 15.8848C1.14524 15.9575 1.08 16.0469 1.0321 16.1477C0.984207 16.2485 0.954591 16.3589 0.944949 16.4726C0.935307 16.5862 0.945827 16.7008 0.975908 16.8099C1.00599 16.919 1.05504 17.0204 1.12026 17.1083L2.77504 19.3525C2.84009 19.4407 2.92009 19.5138 3.01047 19.5675C3.10086 19.6212 3.19985 19.6545 3.30178 19.6654C3.40371 19.6764 3.50657 19.6648 3.60448 19.6314C3.7024 19.5979 3.79344 19.5433 3.87239 19.4705L19.1366 5.4448C19.2772 5.31834 19.4524 5.24938 19.633 5.24938C19.8137 5.24938 19.9888 5.31834 20.1295 5.4448L35.3943 19.4705C35.4731 19.5433 35.564 19.598 35.6618 19.6316C35.7596 19.6651 35.8623 19.6769 35.9642 19.6661C36.066 19.6553 36.165 19.6223 36.2554 19.5689C36.3458 19.5154 36.4259 19.4427 36.491 19.3547L38.1458 17.1105C38.211 17.022 38.2598 16.9201 38.2895 16.8105C38.3193 16.701 38.3293 16.5859 38.319 16.4721C38.3088 16.3582 38.2785 16.2476 38.2298 16.1469C38.1811 16.0461 38.1151 15.957 38.0355 15.8848Z" fill="white"/>
</svg>
