<svg width="36" height="26" viewBox="0 0 36 26" fill="none" xmlns="http://www.w3.org/2000/svg">
<path id="Vector" d="M34.6071 13.7749L22.9089 24.8464C21.8644 25.835 20.054 25.143 20.054 23.7261V17.3995H10.5841C9.65796 17.3995 8.9129 16.6944 8.9129 15.8179V9.49128C8.9129 8.61479 9.65796 7.90964 10.5841 7.90964H20.054V1.58305C20.054 0.172747 21.8575 -0.525814 22.9089 0.462715L34.6071 11.5342C35.2547 12.1537 35.2547 13.1554 34.6071 13.7749ZM13.3693 24.5169V21.8808C13.3693 21.4459 12.9933 21.09 12.5338 21.09H6.68467C5.45219 21.09 4.45645 20.1476 4.45645 18.9812V6.32799C4.45645 5.16152 5.45219 4.21913 6.68467 4.21913H12.5338C12.9933 4.21913 13.3693 3.86326 13.3693 3.4283V0.792225C13.3693 0.357272 12.9933 0.00140164 12.5338 0.00140164H6.68467C2.99418 0.00140164 0 2.83519 0 6.32799V18.9812C0 22.474 2.99418 25.3078 6.68467 25.3078H12.5338C12.9933 25.3078 13.3693 24.9519 13.3693 24.5169Z" fill="white"/>
</svg>
