<svg width="35" height="35" viewBox="0 0 35 35" fill="none" xmlns="http://www.w3.org/2000/svg">
<path id="Vector" d="M5.07567 24.5926C5.14622 25.1138 5.04867 25.6438 4.7968 26.1075C4.54493 26.5712 4.15147 26.9454 3.67198 27.177C3.19249 27.4087 2.65119 27.4862 2.12453 27.3987C1.59787 27.3111 1.11246 27.0629 0.736832 26.689C0.361209 26.3151 0.114357 25.8345 0.0311344 25.3151C-0.0520879 24.7956 0.0325246 24.2636 0.273024 23.794C0.513523 23.3245 0.897756 22.9411 1.37147 22.6982C1.84518 22.4553 2.38443 22.365 2.91307 22.4401C-2.36565 15.0472 6.41963 9.79016 6.41963 9.79016C6.02447 12.6451 5.86397 15.8426 5.86397 15.8426C1.325 18.5972 5.92669 20.0957 8.54852 20.6807C9.21667 22.47 10.4261 24.0146 12.0136 25.1061C13.6012 26.1976 15.4905 26.7836 17.4269 26.7849C17.5563 26.7849 17.6811 26.7709 17.8092 26.7663L17.8166 28.0185C11.1258 28.1108 7.11487 26.0838 5.07567 24.5926ZM12.3585 2.83545C12.4225 2.35551 12.3434 1.86761 12.1306 1.43122C11.9292 1.01714 11.6166 0.665125 11.2268 0.413196C10.8369 0.161267 10.3846 0.0190036 9.9186 0.00177497C9.45261 -0.0154536 8.99069 0.0930073 8.58275 0.315441C8.17481 0.537874 7.83635 0.865825 7.60394 1.26386C7.37153 1.6619 7.254 2.1149 7.26405 2.57392C7.2741 3.03294 7.41134 3.48053 7.66095 3.86834C7.91057 4.25616 8.26306 4.56945 8.68036 4.77437C9.09765 4.97929 9.56388 5.06806 10.0287 5.03108C8.50806 7.0169 6.39873 10.9779 6.49381 17.6458L7.96656 17.6359C7.96656 17.5761 7.95712 17.5184 7.95712 17.4579C7.95839 15.6004 8.52324 13.7855 9.57922 12.2461C10.6352 10.7068 12.1342 9.51307 13.8839 8.81816C14.4234 6.31446 15.9541 1.22939 18.8605 5.87759C18.8605 5.87759 22.1068 6.03561 25.0091 6.42468C25.0091 6.42468 19.7594 -2.07369 12.3585 2.83545ZM32.8712 11.7435C33.2989 11.543 33.6616 11.2296 33.9191 10.8381C34.1765 10.4466 34.3185 9.9925 34.3292 9.52627C34.34 9.06004 34.2191 8.60003 33.98 8.19747C33.7409 7.7949 33.3929 7.46559 32.975 7.24622C32.557 7.02685 32.0853 6.92603 31.6126 6.95499C31.1399 6.98394 30.6846 7.14154 30.2974 7.41023C29.9103 7.67891 29.6065 8.04814 29.4199 8.47678C29.2333 8.90542 29.1712 9.37664 29.2406 9.83796C27.1009 8.38129 23.1823 6.58004 16.8699 6.66834L16.8793 8.16219C17.0614 8.15223 17.2428 8.13497 17.4282 8.13497C19.3259 8.13561 21.1796 8.69784 22.7487 9.74869C24.3178 10.7995 25.5299 12.2905 26.2277 14.0281C28.8643 14.6256 33.3123 16.1248 28.8212 18.8442C28.8212 18.8442 28.6634 22.0397 28.2675 24.8967C28.2675 24.8967 37.2666 19.5082 31.5718 11.9758C32.0191 12.0137 32.4686 11.9335 32.8739 11.7435H32.8712ZM25.1494 28.9706C26.5945 26.8154 28.2797 23.0157 28.1934 17.0423L26.877 17.0516C26.8824 17.1884 26.8973 17.3218 26.8973 17.4599C26.8962 19.3598 26.3053 21.2139 25.2039 22.7737C24.1024 24.3336 22.5429 25.5247 20.7345 26.1873C20.1377 28.7734 18.6144 33.2689 15.8273 28.8092C15.8273 28.8092 12.5824 28.6539 9.67803 28.2635C9.67803 28.2635 15.0673 36.9836 22.6186 31.6495C22.6384 31.9721 22.7217 32.2878 22.8641 32.579C23.0618 32.9862 23.3669 33.3335 23.7477 33.5847C24.1284 33.836 24.5708 33.9818 25.0284 34.0071C25.486 34.0324 25.9421 33.9361 26.349 33.7284C26.7559 33.5207 27.0986 33.2091 27.3413 32.8263C27.584 32.4435 27.7178 32.0035 27.7287 31.5523C27.7395 31.1012 27.627 30.6555 27.403 30.2618C27.179 29.8681 26.8516 29.5409 26.4551 29.3145C26.0587 29.088 25.6077 28.9706 25.1494 28.9745V28.9706Z" fill="white"/>
</svg>
