<svg width="31" height="28" viewBox="0 0 31 28" fill="none" xmlns="http://www.w3.org/2000/svg">
<path id="Vector" d="M15.2577 0C11.571 0 8.58247 3.05004 8.58247 6.81272C8.58247 9.85465 12.9452 15.3989 14.6167 17.4114C14.9552 17.819 15.5608 17.819 15.8988 17.4114C17.5702 15.3989 21.933 9.85465 21.933 6.81272C21.933 3.05004 18.9445 0 15.2577 0ZM15.2577 9.08362C14.0286 9.08362 13.0326 8.06712 13.0326 6.81272C13.0326 5.55831 14.0286 4.54181 15.2577 4.54181C16.4868 4.54181 17.4828 5.55831 17.4828 6.81272C17.4828 8.06712 16.4868 9.08362 15.2577 9.08362ZM1.06592 11.6762C0.751326 11.8047 0.481641 12.0263 0.29165 12.3127C0.101659 12.599 7.53461e-05 12.9368 0 13.2826L0 26.8172C0 27.4293 0.605541 27.8478 1.16234 27.6207L8.47652 24.223V11.6205C8.00819 10.7565 7.62516 9.9152 7.35073 9.11066L1.06592 11.6762ZM15.2577 19.4471C14.5123 19.4471 13.8072 19.1129 13.3235 18.53C12.2819 17.2756 11.1742 15.8471 10.1718 14.3819V24.2224L20.3436 27.6829V14.3824C19.3413 15.8471 18.234 17.2762 17.192 18.5306C16.7083 19.1129 16.0031 19.4471 15.2577 19.4471ZM29.3531 8.71379L22.0389 12.1115V27.6834L29.4495 24.6582C29.7642 24.5299 30.0339 24.3082 30.2239 24.0219C30.4139 23.7356 30.5155 23.3977 30.5155 23.0519V9.51726C30.5155 8.90519 29.9099 8.4867 29.3531 8.71379Z" fill="white"/>
</svg>
