<svg width="34" height="29" viewBox="0 0 34 29" fill="none" xmlns="http://www.w3.org/2000/svg">
<path id="Vector" d="M11.9005 14.4997C15.6565 14.4997 18.7007 11.2542 18.7007 7.24983C18.7007 3.24543 15.6565 0 11.9005 0C8.14438 0 5.1002 3.24543 5.1002 7.24983C5.1002 11.2542 8.14438 14.4997 11.9005 14.4997ZM16.6607 16.3121H15.7734C14.594 16.8898 13.2818 17.2183 11.9005 17.2183C10.5192 17.2183 9.21224 16.8898 8.0275 16.3121H7.14028C3.19825 16.3121 0 19.7218 0 23.9244V26.2806C0 27.7816 1.14223 28.9993 2.5501 28.9993H17.1547C17.0272 28.6142 16.9741 28.2064 17.0166 27.7929L17.3779 24.3436L17.4416 23.7149L17.8613 23.2674L21.968 18.8892C20.6664 17.3203 18.7804 16.3121 16.6607 16.3121ZM19.0673 24.5418L18.706 27.9968C18.6476 28.5745 19.1045 29.0616 19.6411 28.9936L22.8765 28.6085L30.2027 20.7979L26.3935 16.7369L19.0673 24.5418ZM33.6294 15.2303L31.6159 13.0837C31.1218 12.5569 30.3143 12.5569 29.8202 13.0837L27.812 15.2246L27.5942 15.4569L31.4087 19.5179L33.6294 17.1504C34.1235 16.618 34.1235 15.7627 33.6294 15.2303Z" fill="white"/>
</svg>
