<svg width="25" height="28" viewBox="0 0 25 28" fill="none" xmlns="http://www.w3.org/2000/svg">
<path id="Vector" d="M12.5 14C16.4453 14 19.6429 10.8664 19.6429 7C19.6429 3.13359 16.4453 0 12.5 0C8.55469 0 5.35714 3.13359 5.35714 7C5.35714 10.8664 8.55469 14 12.5 14ZM17.5 15.75H16.5681C15.3292 16.3078 13.9509 16.625 12.5 16.625C11.0491 16.625 9.67634 16.3078 8.43192 15.75H7.5C3.35937 15.75 0 19.0422 0 23.1V25.375C0 26.8242 1.19978 28 2.67857 28H22.3214C23.8002 28 25 26.8242 25 25.375V23.1C25 19.0422 21.6406 15.75 17.5 15.75Z" fill="white"/>
</svg>
