<svg width="94" height="93" viewBox="0 0 94 93" fill="none" xmlns="http://www.w3.org/2000/svg">
<path id="Vector" d="M47 0C21.0363 0 0 20.8125 0 46.5C0 72.1875 21.0363 93 47 93C72.9637 93 94 72.1875 94 46.5C94 20.8125 72.9637 0 47 0ZM47 18C56.2105 18 63.6774 25.3875 63.6774 34.5C63.6774 43.6125 56.2105 51 47 51C37.7895 51 30.3226 43.6125 30.3226 34.5C30.3226 25.3875 37.7895 18 47 18ZM47 82.5C35.8754 82.5 25.9069 77.5125 19.2359 69.7125C22.7988 63.075 29.773 58.5 37.9032 58.5C38.3581 58.5 38.8129 58.575 39.2488 58.7063C41.7125 59.4938 44.2899 60 47 60C49.7101 60 52.3065 59.4938 54.7512 58.7063C55.1871 58.575 55.6419 58.5 56.0968 58.5C64.227 58.5 71.2012 63.075 74.7641 69.7125C68.0932 77.5125 58.1246 82.5 47 82.5Z" fill="white"/>
</svg>
